# xmcd
#
# Track frame offsets: 
#        183
#        18195
#        29720
#        40705
#        52248
#        64500
#        75130
#        84750
#        96843
#        105275
#        117490
#        128528
#        143905
#        154680
#        169733
#        178858
#        190685
#        204088
#        211975
#        223255
#
# Disc length: 3132 seconds
#
# Revision: 3
# Processed by: cddbd v1.5.1PL0 Copyright (c) Steve Scherf et al.
# Submitted via: ExactAudioCopy v0.95b2
#
DISCID=030c3a14
DTITLE=Various Artist - THE KINGS OF COUNTRY AND WESTERN volume 1
DYEAR=1900
DGENRE=
TTITLE0=David Houston - Nashville
TTITLE1=Kitty Wells - Heartbreak U.S.A.
TTITLE2=Hank Locklin - Send Me The Pillow You Dream On
TTITLE3=Wanda Jackson - In The Middle Of A Heartache
TTITLE4=Jean Shepard - Then He Touched Me
TTITLE5=Hank Thompson - Wake Up Irene
TTITLE6=Sue Thompson - James (Hold The Ladder Steady)
TTITLE7=Jeannie C. Riley - Country Girl
TTITLE8=Frankie Miller - Family Man
TTITLE9=Jody Miller - Queen Of The House
TTITLE10=Faron Young - Wine Me Up
TTITLE11=Melba Montgomery - No Charge
TTITLE12=Billy Walker - Charlie's Shoes
TTITLE13=Jeannie C. Riley - Harper Valley P.T.A.
TTITLE14=Bob Luman - Let's Think About Loving
TTITLE15=Skeeter Davis - (I Can't Help You) I'm falling Too
TTITLE16=David Houston - Almost Persuaded
TTITLE17=Susan Raye - (I've Got A) Happy Heart
TTITLE18=Ernie Ashworth - Talk Back Trembling Lips
TTITLE19=Sandy Posey - Let's All Go Down The River
EXTD=
EXTT0=
EXTT1=
EXTT2=
EXTT3=
EXTT4=
EXTT5=
EXTT6=
EXTT7=
EXTT8=
EXTT9=
EXTT10=
EXTT11=
EXTT12=
EXTT13=
EXTT14=
EXTT15=
EXTT16=
EXTT17=
EXTT18=
EXTT19=
PLAYORDER=
